<svg width="133" height="44" viewBox="0 0 133 44" fill="none" xmlns="http://www.w3.org/2000/svg">
<path d="M64.22 5.9L63.66 9.02H59.92L57.98 20H54.04L55.98 9.02H52.26L52.82 5.9H64.22ZM71.8503 5.9C73.3303 5.9 74.457 6.23333 75.2303 6.9C76.0037 7.55333 76.3903 8.42667 76.3903 9.52C76.3903 9.85333 76.3637 10.1533 76.3103 10.42C76.1503 11.38 75.7437 12.2267 75.0903 12.96C74.437 13.68 73.5703 14.1933 72.4903 14.5L74.6903 20H70.3303L68.4503 14.8H68.0303L67.1103 20H63.1703L65.6703 5.9H71.8503ZM68.5103 12.12H70.4503C71.4903 12.12 72.1037 11.6267 72.2903 10.64C72.317 10.48 72.3303 10.3667 72.3303 10.3C72.3303 9.94 72.2103 9.66 71.9703 9.46C71.7437 9.26 71.4037 9.16 70.9503 9.16H69.0103L68.5103 12.12ZM85.733 17.7H80.733L79.573 20H75.453L83.073 5.9H87.593L90.233 20H86.093L85.733 17.7ZM85.273 14.72L84.573 10.14L82.253 14.72H85.273ZM92.2706 12.92C92.5106 11.5333 93.0173 10.3 93.7906 9.22C94.564 8.12667 95.5373 7.28 96.7106 6.68C97.884 6.06667 99.164 5.76 100.551 5.76C101.711 5.76 102.724 5.97333 103.591 6.4C104.457 6.82667 105.131 7.43333 105.611 8.22C106.091 9.00667 106.351 9.93333 106.391 11H102.171C102.011 10.48 101.731 10.08 101.331 9.8C100.931 9.52 100.437 9.38 99.8506 9.38C98.944 9.38 98.164 9.7 97.5106 10.34C96.8573 10.98 96.4373 11.84 96.2506 12.92C96.1973 13.2 96.1706 13.5 96.1706 13.82C96.1706 14.6467 96.384 15.3 96.8106 15.78C97.2506 16.2467 97.8506 16.48 98.6106 16.48C99.1973 16.48 99.7373 16.34 100.231 16.06C100.737 15.78 101.157 15.38 101.491 14.86H105.731C105.091 16.4733 104.084 17.7533 102.711 18.7C101.337 19.6333 99.7706 20.1 98.0106 20.1C96.7973 20.1 95.744 19.8667 94.8506 19.4C93.9706 18.9333 93.2973 18.2733 92.8306 17.42C92.364 16.5667 92.1306 15.58 92.1306 14.46C92.1306 13.94 92.1773 13.4267 92.2706 12.92ZM115.587 12.76L119.747 20H115.007L111.667 13.8L110.587 20H106.647L109.147 5.9H113.067L111.987 12L117.447 5.9H121.967L115.587 12.76Z" fill="#0C0D2D"/>
<path d="M64.2169 22.4L63.6569 25.52H59.9169L57.9769 36.5H54.0369L55.9769 25.52H52.2569L52.8169 22.4H64.2169ZM71.8472 22.4C73.3272 22.4 74.4539 22.7333 75.2272 23.4C76.0006 24.0533 76.3872 24.9267 76.3872 26.02C76.3872 26.3533 76.3606 26.6533 76.3072 26.92C76.1472 27.88 75.7406 28.7267 75.0872 29.46C74.4339 30.18 73.5672 30.6933 72.4872 31L74.6872 36.5H70.3272L68.4472 31.3H68.0272L67.1072 36.5H63.1672L65.6672 22.4H71.8472ZM68.5072 28.62H70.4472C71.4872 28.62 72.1006 28.1267 72.2872 27.14C72.3139 26.98 72.3272 26.8667 72.3272 26.8C72.3272 26.44 72.2072 26.16 71.9672 25.96C71.7406 25.76 71.4006 25.66 70.9472 25.66H69.0072L68.5072 28.62ZM85.7299 34.2H80.7299L79.5699 36.5H75.4499L83.0699 22.4H87.5899L90.2299 36.5H86.0899L85.7299 34.2ZM85.2699 31.22L84.5699 26.64L82.2499 31.22H85.2699ZM99.5675 22.4C100.861 22.4 101.981 22.6333 102.928 23.1C103.874 23.5533 104.594 24.2 105.088 25.04C105.581 25.88 105.828 26.86 105.828 27.98C105.828 28.4867 105.781 28.9733 105.688 29.44C105.448 30.8 104.928 32.0133 104.128 33.08C103.341 34.1467 102.334 34.9867 101.108 35.6C99.8942 36.2 98.5475 36.5 97.0675 36.5H91.4875L93.9875 22.4H99.5675ZM97.3875 33.06C98.5342 33.06 99.4875 32.7467 100.248 32.12C101.008 31.48 101.494 30.5867 101.708 29.44C101.761 29.1733 101.788 28.8867 101.788 28.58C101.788 27.6867 101.514 27 100.968 26.52C100.421 26.04 99.6542 25.8 98.6675 25.8H97.3275L96.0275 33.06H97.3875ZM112.075 25.5L111.675 27.84H116.175L115.635 30.82H111.135L110.675 33.38H115.775L115.235 36.5H106.195L108.695 22.4H117.715L117.175 25.5H112.075ZM122.992 36.64C121.365 36.64 120.052 36.3067 119.052 35.64C118.065 34.96 117.572 33.9733 117.572 32.68C117.572 32.5733 117.585 32.3867 117.612 32.12H121.752C121.712 32.5733 121.805 32.9267 122.032 33.18C122.258 33.4333 122.605 33.56 123.072 33.56C123.458 33.56 123.765 33.4733 123.992 33.3C124.232 33.1267 124.352 32.88 124.352 32.56C124.352 32.1867 124.178 31.88 123.832 31.64C123.498 31.4 122.952 31.12 122.192 30.8C121.432 30.48 120.805 30.18 120.312 29.9C119.818 29.6067 119.392 29.2133 119.032 28.72C118.672 28.2133 118.492 27.5867 118.492 26.84C118.492 25.8667 118.732 25.0333 119.212 24.34C119.692 23.6333 120.358 23.1 121.212 22.74C122.078 22.3667 123.065 22.18 124.172 22.18C125.172 22.18 126.058 22.34 126.832 22.66C127.605 22.9667 128.205 23.4133 128.632 24C129.072 24.5867 129.292 25.28 129.292 26.08C129.292 26.2933 129.285 26.4533 129.272 26.56H125.052C125.065 26.4933 125.072 26.4 125.072 26.28C125.072 25.96 124.972 25.7133 124.772 25.54C124.572 25.3533 124.298 25.26 123.952 25.26C123.592 25.26 123.298 25.3533 123.072 25.54C122.858 25.7133 122.752 25.96 122.752 26.28C122.752 26.6267 122.918 26.9267 123.252 27.18C123.598 27.42 124.132 27.7067 124.852 28.04C125.625 28.4 126.258 28.74 126.752 29.06C127.258 29.3667 127.692 29.78 128.052 30.3C128.412 30.82 128.592 31.46 128.592 32.22C128.592 33.06 128.365 33.82 127.912 34.5C127.458 35.1667 126.812 35.6933 125.972 36.08C125.132 36.4533 124.138 36.64 122.992 36.64Z" fill="#0C0D2D"/>
<path d="M37.4312 0H6.6055C2.95738 0 0 2.95492 0 6.6V37.4C0 41.0451 2.95738 44 6.6055 44H37.4312C41.0793 44 44.0367 41.0451 44.0367 37.4V6.6C44.0367 2.95492 41.0793 0 37.4312 0Z" fill="#F2F3FF"/>
<path d="M28.6238 7.33334H21.9927V13.4445H15.0459V36.6667H21.677V30.5556H28.6238V7.33334Z" fill="#383FEC"/>
</svg>
